HIERARCHY
ROOT Hips
{
	OFFSET 53.046700 7.421462 52.172298
	CHANNELS 6 Xposition Yposition Zposition Xrotation Yrotation Zrotation
	JOINT spine
	{
		OFFSET 0.000000 -0.393701 6.846371
		CHANNELS 3 Xrotation Yrotation Zrotation
		JOINT spine1
		{
			OFFSET 0.000000 -0.000001 9.496208
			CHANNELS 3 Xrotation Yrotation Zrotation
			JOINT spine2
			{
				OFFSET 0.000000 -0.000002 9.099091
				CHANNELS 3 Xrotation Yrotation Zrotation
				JOINT Neck
				{
					OFFSET 0.000000 -1.113784 23.361198
					CHANNELS 3 Xrotation Yrotation Zrotation
					JOINT Head
					{
						OFFSET 0.000000 -0.000001 7.058022
						CHANNELS 3 Xrotation Yrotation Zrotation
						End Site
						{
							OFFSET 0.000000 5.634187 17.084396
						}
					}
				}
				JOINT RightShoulder
				{
					OFFSET -3.831360 0.533490 9.826309
					CHANNELS 3 Xrotation Yrotation Zrotation
					JOINT RightArm
					{
						OFFSET 0.000000 -0.000002 12.888100
						CHANNELS 3 Xrotation Yrotation Zrotation
						JOINT RightArmRoll
						{
							OFFSET 0.000000 -0.000001 6.506172
							CHANNELS 3 Xrotation Yrotation Zrotation
							JOINT RightForeArm
							{
								OFFSET 0.000000 -0.000003 18.950104
								CHANNELS 3 Xrotation Yrotation Zrotation
								JOINT RightForeArmRoll
								{
									OFFSET 0.000000 -0.000001 7.300919
									CHANNELS 3 Xrotation Yrotation Zrotation
									JOINT RightHand
									{
										OFFSET 0.000000 -0.000002 14.651398
										CHANNELS 3 Xrotation Yrotation Zrotation
										End Site
										{
											OFFSET 0.000000 -0.000000 0.100006
										}
									}
								}
							}
						}
					}
				}
				JOINT LeftShoulder
				{
					OFFSET 3.831360 0.533490 9.826309
					CHANNELS 3 Xrotation Yrotation Zrotation
					JOINT LeftArm
					{
						OFFSET 0.000000 -0.000002 12.888100
						CHANNELS 3 Xrotation Yrotation Zrotation
						JOINT LeftArmRoll
						{
							OFFSET 0.000000 -0.000001 6.506172
							CHANNELS 3 Xrotation Yrotation Zrotation
							JOINT LeftForeArm
							{
								OFFSET 0.000000 -0.000003 18.950104
								CHANNELS 3 Xrotation Yrotation Zrotation
								JOINT LeftForeArmRoll
								{
									OFFSET 0.000000 -0.000001 7.300934
									CHANNELS 3 Xrotation Yrotation Zrotation
									JOINT LeftHand
									{
										OFFSET 0.000000 -0.000002 14.651398
										CHANNELS 3 Xrotation Yrotation Zrotation
										End Site
										{
											OFFSET 0.000000 -0.000000 0.100006
										}
									}
								}
							}
						}
					}
				}
			}
		}
	}
	JOINT RightUpLeg
	{
		OFFSET -6.068371 0.933477 -1.112782
		CHANNELS 3 Xrotation Yrotation Zrotation
		JOINT RightUpLegRoll
		{
			OFFSET 0.000000 -0.000003 17.179604
			CHANNELS 3 Xrotation Yrotation Zrotation
			JOINT RightLeg
			{
				OFFSET 0.000000 0.000004 -21.274300
				CHANNELS 3 Xrotation Yrotation Zrotation
				JOINT RightLegRoll
				{
					OFFSET 0.000000 -0.000004 21.343903
					CHANNELS 3 Xrotation Yrotation Zrotation
					JOINT RightFoot
					{
						OFFSET 0.000000 -0.000003 17.765198
						CHANNELS 3 Xrotation Yrotation Zrotation
						JOINT RightToeBase
						{
							OFFSET 0.000000 -0.000002 14.850800
							CHANNELS 3 Xrotation Yrotation Zrotation
							End Site
							{
								OFFSET 0.006294 0.829003 7.192139
							}
						}
					}
				}
			}
		}
	}
	JOINT LeftUpLeg
	{
		OFFSET 6.068371 0.933477 -1.112782
		CHANNELS 3 Xrotation Yrotation Zrotation
		JOINT LeftUpLegRoll
		{
			OFFSET 0.000000 -0.000003 17.179703
			CHANNELS 3 Xrotation Yrotation Zrotation
			JOINT LeftLeg
			{
				OFFSET 0.000000 -0.000003 21.274200
				CHANNELS 3 Xrotation Yrotation Zrotation
				JOINT LeftLegRoll
				{
					OFFSET 0.000000 -0.000004 21.541199
					CHANNELS 3 Xrotation Yrotation Zrotation
					JOINT LeftFoot
					{
						OFFSET 0.000000 -0.000003 17.567894
						CHANNELS 3 Xrotation Yrotation Zrotation
						JOINT LeftToeBase
						{
							OFFSET 0.000000 -0.000003 14.850800
							CHANNELS 3 Xrotation Yrotation Zrotation
							End Site
							{
								OFFSET -0.028210 0.829004 7.192139
							}
						}
					}
				}
			}
		}
	}
}
MOTION
Frames: 10
Frame Time: 0.041667
49.793106 -20.312714 86.731293 3.710383 -0.739969 -2.341755 -1.922288 -1.074745 0.932949 0.175845 -2.184330 1.835852 1.821047 -2.162189 1.861878 4.223692 15.765108 -1.680476 10.056132 -12.337926 -1.926757 -11.830964 -50.514204 -13.538635 -56.089797 -140.266541 -54.376389 -0.000000 0.000003 -0.000004 0.192781 -24.170177 -0.814131 0.000006 -0.000001 -3.144398 -5.000189 -7.999840 0.000060 -32.999014 74.415669 37.611888 -77.118935 127.752978 62.280206 -0.000003 -0.000002 -0.000001 0.185919 23.500490 0.409231 0.000004 0.000028 3.126272 -5.000182 7.999707 -0.000053 -20.005382 -176.372273 -1.069213 179.999991 -0.000005 -0.937001 158.549495 -4.507115 -1.327510 0.000002 -0.000003 0.350344 69.685080 7.089241 1.549095 25.456957 -7.355614 0.000011 -17.313375 177.590232 1.257206 -0.000003 -0.000004 -0.856271 -22.633539 1.742311 1.141792 -0.000001 0.000005 -0.415781 73.313523 -6.059220 -4.225027 25.459853 7.353436 -0.000458 
49.786308 -20.294312 86.724899 3.727015 -0.741085 -2.335977 -1.919717 -1.074057 0.933737 0.180984 -2.181999 1.837461 1.826187 -2.159843 1.863467 4.239842 15.770085 -1.696896 10.034017 -12.339532 -1.944025 -11.840093 -50.528537 -13.550724 -56.075033 -140.202596 -54.345247 -0.000001 0.000003 -0.000003 0.192776 -24.168283 -0.812299 0.000005 0.000001 -3.144389 -5.000188 -7.999842 0.000060 -32.972923 74.407569 37.584277 -77.084251 127.733307 62.226377 -0.000003 -0.000002 0.000001 0.186592 23.489191 0.419608 0.000002 0.000029 3.126578 -5.000179 7.999709 -0.000055 -20.035095 -176.370128 -1.067592 179.999991 -0.000005 -0.937001 158.533950 -4.510365 -1.327201 0.000003 -0.000003 0.350344 69.688051 7.089875 1.547519 25.456952 -7.355615 0.000011 -17.346398 177.590669 1.259733 -0.000004 -0.000004 -0.856218 -22.650381 1.744691 1.142065 -0.000003 0.000005 -0.415781 73.313953 -6.059232 -4.223905 25.459855 7.353436 -0.000459 
49.789509 -20.290710 86.723709 3.743324 -0.742160 -2.330164 -1.917157 -1.073409 0.934576 0.186095 -2.179708 1.839117 1.831288 -2.157518 1.865095 4.256704 15.775242 -1.713763 10.011186 -12.341163 -1.961770 -11.849464 -50.542935 -13.563134 -56.058778 -140.138543 -54.312848 -0.000004 0.000003 -0.000003 0.192776 -24.166580 -0.810170 0.000006 -0.000003 -3.144381 -5.000189 -7.999839 0.000061 -32.947200 74.399646 37.557045 -77.049909 127.713063 62.172432 -0.000007 -0.000002 -0.000001 0.187252 23.477790 0.430035 0.000005 0.000027 3.126860 -5.000183 7.999707 -0.000056 -20.064335 -176.367041 -1.066390 179.999991 -0.000005 -0.937001 158.518158 -4.514535 -1.328260 0.000003 -0.000003 0.350344 69.691248 7.090517 1.545828 25.456957 -7.355615 0.000010 -17.379141 177.590123 1.262494 -0.000003 -0.000004 -0.856174 -22.667217 1.747043 1.142324 -0.000003 0.000005 -0.415781 73.314458 -6.059151 -4.222967 25.459856 7.353436 -0.000459 
49.792206 -20.300510 86.722397 3.759420 -0.743209 -2.324336 -1.914616 -1.072781 0.935451 0.191186 -2.177428 1.840813 1.836379 -2.155223 1.866754 4.274082 15.780693 -1.730961 9.987839 -12.342811 -1.979863 -11.859060 -50.557422 -13.575817 -56.042850 -140.073656 -54.281357 -0.000003 0.000003 -0.000004 0.192773 -24.165080 -0.807831 0.000006 -0.000003 -3.144368 -5.000187 -7.999840 0.000059 -32.921870 74.391880 37.530233 -77.015936 127.692244 62.118754 -0.000001 -0.000001 -0.000001 0.187899 23.466389 0.440504 0.000002 0.000029 3.127120 -5.000176 7.999710 -0.000056 -20.093249 -176.364910 -1.064896 179.999991 -0.000005 -0.937001 158.502504 -4.517779 -1.327962 0.000003 -0.000003 0.350344 69.694526 7.091127 1.544330 25.456957 -7.355615 0.000011 -17.411576 177.589604 1.265200 -0.000005 -0.000004 -0.856135 -22.684061 1.749385 1.142578 -0.000002 0.000005 -0.415781 73.314882 -6.059130 -4.222043 25.459855 7.353435 -0.000459 
49.790707 -20.289812 86.720490 3.775379 -0.744241 -2.318500 -1.912074 -1.072163 0.936348 0.196264 -2.175167 1.842518 1.841461 -2.152938 1.868442 4.291757 15.786234 -1.748344 9.964227 -12.344569 -1.998118 -11.868737 -50.571889 -13.588607 -56.026597 -140.008469 -54.249799 -0.000002 0.000003 -0.000003 0.192776 -24.163577 -0.805377 0.000004 -0.000001 -3.144349 -5.000188 -7.999839 0.000062 -32.896783 74.384209 37.503667 -76.981942 127.671221 62.064925 -0.000003 -0.000001 -0.000001 0.188542 23.454991 0.450995 0.000002 0.000028 3.127380 -5.000180 7.999706 -0.000054 -20.122065 -176.362738 -1.063446 179.999991 -0.000005 -0.937001 158.486753 -4.521006 -1.328653 0.000003 -0.000003 0.350344 69.697825 7.091771 1.542834 25.456957 -7.355614 0.000010 -17.443813 177.589071 1.267877 -0.000004 -0.000004 -0.856100 -22.700899 1.751716 1.142828 -0.000002 0.000005 -0.415780 73.315380 -6.059051 -4.221103 25.459849 7.353435 -0.000459 
49.791908 -20.284609 86.718903 3.791312 -0.745265 -2.312654 -1.909534 -1.071545 0.937249 0.201339 -2.172907 1.844223 1.846531 -2.150653 1.870119 4.309504 15.791870 -1.765782 9.940519 -12.346225 -2.016452 -11.878450 -50.586358 -13.601446 -56.010317 -139.943172 -54.218277 0.000002 0.000003 -0.000003 0.192775 -24.162081 -0.802891 0.000006 0.000001 -3.144329 -5.000190 -7.999839 0.000060 -32.871477 74.376443 37.476876 -76.948044 127.650184 62.011240 -0.000001 -0.000002 -0.000001 0.189180 23.443685 0.461488 -0.000001 0.000028 3.127641 -5.000181 7.999710 -0.000055 -20.150801 -176.359651 -1.062344 179.999991 -0.000005 -0.937001 158.471085 -4.524249 -1.328360 0.000003 -0.000003 0.350344 69.701213 7.092382 1.541229 25.456957 -7.355613 0.000010 -17.476040 177.589508 1.270251 -0.000004 -0.000004 -0.856066 -22.717737 1.754047 1.143079 -0.000002 0.000005 -0.415781 73.315886 -6.058972 -4.220166 25.459853 7.353435 -0.000459 
49.792206 -20.279711 86.715599 3.807304 -0.746293 -2.306817 -1.906992 -1.070927 0.938140 0.206422 -2.170635 1.845928 1.851612 -2.148368 1.871796 4.327105 15.797403 -1.783130 9.916963 -12.347875 -2.034684 -11.888125 -50.600825 -13.614225 -55.994150 -139.877917 -54.186787 0.000000 0.000003 -0.000004 0.192776 -24.160575 -0.800464 0.000005 -0.000001 -3.144319 -5.000190 -7.999837 0.000062 -32.846397 74.368759 37.450330 -76.914009 127.629297 61.957472 -0.000003 -0.000002 -0.000001 0.189825 23.432289 0.471968 -0.000000 0.000028 3.127902 -5.000183 7.999705 -0.000056 -20.179618 -176.357520 -1.060881 179.999991 -0.000005 -0.937001 158.455293 -4.528413 -1.329427 0.000003 -0.000003 0.350344 69.704608 7.092994 1.539721 25.456957 -7.355614 0.000011 -17.508280 177.588976 1.272936 -0.000004 -0.000004 -0.856030 -22.734577 1.756377 1.143332 -0.000003 0.000005 -0.415781 73.316391 -6.058893 -4.219225 25.459855 7.353436 -0.000459 
49.792709 -20.237511 86.702896 3.823456 -0.747336 -2.300996 -1.904450 -1.070289 0.939004 0.211517 -2.168355 1.847602 1.856713 -2.146063 1.873443 4.344339 15.802648 -1.800241 9.893765 -12.349409 -2.052697 -11.897655 -50.615209 -13.626828 -55.977635 -139.813412 -54.154476 -0.000001 0.000003 -0.000003 0.192774 -24.159076 -0.798186 0.000005 -0.000004 -3.144309 -5.000190 -7.999838 0.000062 -32.821016 74.360898 37.423453 -76.879633 127.608670 61.903459 -0.000004 -0.000001 -0.000001 0.190479 23.420884 0.482427 -0.000001 0.000029 3.128169 -5.000183 7.999707 -0.000055 -20.208657 -176.354433 -1.059726 179.999991 -0.000005 -0.937001 158.439639 -4.531652 -1.329138 0.000002 -0.000003 0.350344 69.707900 7.093600 1.538119 25.456953 -7.355614 0.000010 -17.540815 177.588456 1.275663 -0.000004 -0.000004 -0.855989 -22.751418 1.758725 1.143594 -0.000003 0.000005 -0.415780 73.316897 -6.058816 -4.218288 25.459848 7.353436 -0.000459 
49.793907 -20.240618 86.702393 3.839871 -0.748404 -2.295189 -1.901891 -1.069620 0.939828 0.216637 -2.166045 1.849247 1.861833 -2.143738 1.875059 4.360999 15.807802 -1.817005 9.871152 -12.351024 -2.070302 -11.907010 -50.629614 -13.639211 -55.961721 -139.749290 -54.122412 -0.000001 0.000004 -0.000003 0.192774 -24.157283 -0.796145 0.000004 -0.000001 -3.144290 -5.000189 -7.999837 0.000060 -32.795433 74.352954 37.396379 -76.844744 127.588781 61.849187 0.000000 -0.000002 -0.000001 0.191137 23.409486 0.492844 0.000002 0.000028 3.128462 -5.000182 7.999710 -0.000053 -20.237973 -176.352302 -1.058161 179.999991 -0.000005 -0.937001 158.423984 -4.534890 -1.328837 0.000002 -0.000003 0.350344 69.710973 7.094236 1.536537 25.456959 -7.355615 0.000012 -17.573641 177.588894 1.278147 -0.000005 -0.000004 -0.855942 -22.768255 1.761082 1.143865 -0.000002 0.000005 -0.415781 73.317313 -6.058793 -4.217361 25.459849 7.353436 -0.000458 
49.783207 -20.278112 86.704895 3.856622 -0.749507 -2.289415 -1.899311 -1.068923 0.940594 0.221788 -2.163694 1.850843 1.866984 -2.141373 1.876625 4.376849 15.812472 -1.833256 9.849312 -12.352507 -2.087385 -11.916095 -50.643947 -13.651244 -55.946585 -139.685701 -54.090700 -0.000001 0.000003 -0.000003 0.192774 -24.155282 -0.794430 0.000006 -0.000002 -3.144289 -5.000189 -7.999837 0.000059 -32.769366 74.344744 37.368767 -76.809405 127.569492 61.794859 -0.000003 -0.000001 0.000001 0.191813 23.398186 0.503204 0.000007 0.000028 3.128769 -5.000181 7.999710 -0.000056 -20.267915 -176.349242 -1.056864 179.999991 -0.000005 -0.937001 158.408302 -4.539056 -1.329918 0.000002 -0.000003 0.350344 69.713863 7.094900 1.534971 25.456957 -7.355614 0.000011 -17.606884 177.588374 1.281015 -0.000004 -0.000004 -0.855886 -22.785195 1.763473 1.144161 -0.000003 0.000005 -0.415781 73.317737 -6.058777 -4.216335 25.459855 7.353435 -0.000459 
